<svg width="156" height="129" viewBox="0 0 156 129" fill="none" xmlns="http://www.w3.org/2000/svg">
<g clip-path="url(#clip0_2008_781)">
<path d="M46.9661 31.6249C50.5876 31.6249 53.4997 28.7128 53.4997 25.0664C53.4997 21.42 50.6125 18.5078 47.0158 18.5078C43.4192 18.5078 40.5195 21.4448 40.5195 24.9668C40.5195 26.9207 41.2165 28.5385 42.5481 29.8079C43.7677 30.9529 45.398 31.6124 46.9661 31.6124V31.6249Z" fill="white"/>
<path d="M51.0225 51.8985H55.5525L53.3372 46.1738L51.0225 51.8985Z" fill="white"/>
<path d="M68.346 44.3574H67.3877V49.1737H68.2962C70.2501 49.1737 71.3203 48.3149 71.3203 46.7469C71.3203 45.1788 70.2998 44.3574 68.3335 44.3574H68.346Z" fill="white"/>
<path d="M43.7794 70.1797C40.8921 70.1797 38.4902 72.6314 38.4902 75.5933C38.4902 78.5552 40.8424 81.1313 43.8043 81.1313C46.7662 81.1313 49.0934 78.6672 49.0934 75.6431C49.0934 72.6189 46.7164 70.1797 43.7794 70.1797Z" fill="white"/>
<path d="M26.319 70.3913H25.2363V75.0209H26.5057C28.4471 75.0209 29.4179 74.2618 29.4179 72.731C29.4179 71.9594 29.1067 71.2749 28.5965 70.8892C28.1236 70.5282 27.4515 70.3789 26.3066 70.3789L26.319 70.3913Z" fill="white"/>
<path d="M85.4212 46.1737L83.1064 51.8985H87.6364L85.4212 46.1737Z" fill="white"/>
<path d="M85.0342 77.7345H89.5766L87.349 72.0098L85.0342 77.7345Z" fill="white"/>
<path d="M154.516 7.78077V0.861328H147.522C147.41 2.51652 146.053 3.82325 144.373 3.82325C142.693 3.82325 141.336 2.50407 141.237 0.861328H137.254C137.155 2.51652 135.798 3.82325 134.118 3.82325C132.438 3.82325 131.082 2.50407 130.97 0.861328H126.987C126.888 2.51652 125.531 3.82325 123.851 3.82325C122.171 3.82325 120.814 2.50407 120.702 0.861328H116.72C116.62 2.51652 115.264 3.82325 113.584 3.82325C111.904 3.82325 110.547 2.50407 110.435 0.861328H106.453C106.353 2.51652 104.997 3.82325 103.317 3.82325C101.637 3.82325 100.28 2.50407 100.168 0.861328H96.1733C96.0737 2.51652 94.7172 3.82325 93.0371 3.82325C91.357 3.82325 90.0005 2.50407 89.901 0.861328H85.9185C85.819 2.51652 84.4625 3.82325 82.7824 3.82325C81.1023 3.82325 79.7458 2.50407 79.6338 0.861328H75.6514C75.5518 2.51652 74.1829 3.82325 72.5028 3.82325C70.8227 3.82325 69.4662 2.50407 69.3666 0.861328H65.3718C65.2722 2.51652 63.9157 3.82325 62.2356 3.82325C60.5555 3.82325 59.199 2.50407 59.087 0.861328H55.1046C55.005 2.51652 53.6485 3.82325 51.9684 3.82325C50.2884 3.82325 48.9319 2.50407 48.8199 0.861328H44.8374C44.7379 2.51652 43.3814 3.82325 41.7013 3.82325C40.0212 3.82325 38.6647 2.50407 38.5527 0.861328H34.5703C34.4707 2.51652 33.1142 3.82325 31.4217 3.82325C29.7292 3.82325 28.3851 2.51652 28.2855 0.861328H24.3031C24.1911 2.51652 22.847 3.82325 21.1545 3.82325C19.462 3.82325 18.1179 2.51652 18.0059 0.861328H14.0235C13.9239 2.51652 12.5674 3.82325 10.8874 3.82325C9.20727 3.82325 7.85076 2.51652 7.73876 0.861328H0.769531V7.76833C2.51184 7.78077 3.91813 9.18706 3.91813 10.9294C3.91813 12.6717 2.51184 14.078 0.769531 14.0904V18.0355C2.51184 18.0479 3.91813 19.4542 3.91813 21.1965C3.91813 22.9388 2.51184 24.3451 0.769531 24.3576V28.3027C2.51184 28.3027 3.91813 29.7214 3.91813 31.4637C3.91813 33.206 2.51184 34.6123 0.769531 34.6247V38.5698C2.51184 38.5698 3.91813 39.9886 3.91813 41.7309C3.91813 43.4732 2.51184 44.8795 0.769531 44.8795V48.8245C2.51184 48.8245 3.91813 50.2433 3.91813 51.9856C3.91813 53.7279 2.51184 55.1342 0.769531 55.1466V59.0917C2.51184 59.0917 3.91813 60.5104 3.91813 62.2527C3.91813 63.995 2.51184 65.4013 0.769531 65.4138V69.3589C2.51184 69.3589 3.91813 70.7776 3.91813 72.5199C3.91813 74.2622 2.51184 75.6685 0.769531 75.6809V79.626C2.51184 79.626 3.91813 81.0448 3.91813 82.7871C3.91813 84.5294 2.51184 85.9357 0.769531 85.9481V89.8932C2.51184 89.8932 3.91813 91.3119 3.91813 93.0542C3.91813 94.7965 2.51184 96.2153 0.769531 96.2153V103.247H7.7512C7.78854 101.542 9.18238 100.16 10.8998 100.16C12.6172 100.16 14.0111 101.542 14.0484 103.247H18.0059C18.0433 101.542 19.4371 100.16 21.1545 100.16C22.8719 100.16 24.2658 101.542 24.3156 103.247H28.2731C28.3104 101.542 29.7043 100.16 31.4217 100.16C33.1391 100.16 34.5329 101.542 34.5703 103.247H38.5278C38.5651 101.542 39.959 100.16 41.6888 100.16C43.4187 100.16 44.8001 101.542 44.8374 103.247H48.795C48.8323 101.542 50.2386 100.16 51.956 100.16C53.6734 100.16 55.0673 101.542 55.1046 103.247H59.0621C59.0995 101.542 60.4933 100.16 62.2232 100.16C63.953 100.16 65.3344 101.542 65.3718 103.247H69.3293C69.3666 101.542 70.7605 100.16 72.4779 100.16C74.1953 100.16 75.5891 101.542 75.6265 103.247H79.584C79.6213 101.542 81.0152 100.16 82.7326 100.16C84.45 100.16 85.8439 101.542 85.8936 103.247H89.8512C89.8885 101.542 91.2823 100.16 92.9998 100.16C94.7172 100.16 96.1235 101.542 96.1484 103.247H100.106C100.143 101.542 101.537 100.16 103.254 100.16C104.972 100.16 106.366 101.542 106.403 103.247H110.361C110.398 101.542 111.792 100.16 113.509 100.16C115.227 100.16 116.62 101.542 116.658 103.247H120.615C120.653 101.542 122.047 100.16 123.764 100.16C125.481 100.16 126.875 101.542 126.913 103.247H130.87C130.907 101.542 132.301 100.16 134.019 100.16C135.736 100.16 137.13 101.542 137.167 103.247H141.125C141.162 101.542 142.556 100.16 144.273 100.16C145.991 100.16 147.385 101.542 147.434 103.247H154.416V96.2153C152.711 96.153 151.355 94.7716 151.355 93.0542C151.355 91.3368 152.711 89.9554 154.416 89.9056V85.9357C152.711 85.8859 151.355 84.492 151.355 82.7871C151.355 81.0821 152.711 79.6882 154.416 79.6385V75.6809C152.711 75.6312 151.355 74.2373 151.355 72.5323C151.355 70.8274 152.711 69.4335 154.416 69.3838V65.4138C152.711 65.364 151.355 63.9702 151.355 62.2652C151.355 60.5602 152.711 59.1664 154.416 59.1166V55.1591C152.711 55.0968 151.355 53.7154 151.355 52.0105C151.355 50.3055 152.711 48.9116 154.416 48.8619V44.9043C152.711 44.8421 151.355 43.4607 151.355 41.7557C151.355 40.0508 152.711 38.6569 154.416 38.6072V34.6496C152.711 34.5874 151.355 33.206 151.355 31.501C151.355 29.7961 152.711 28.4147 154.416 28.3524V24.3825C152.711 24.3327 151.355 22.9388 151.355 21.2339C151.355 19.5289 152.711 18.1351 154.416 18.0853V14.1153C152.711 14.0655 151.355 12.6717 151.355 10.9667C151.355 9.26173 152.711 7.86789 154.416 7.81811L154.516 7.78077ZM85.9185 17.1021H87.7106V31.3641H92.0664V33.0069H85.9185V17.0897V17.1021ZM86.9515 36.0559L88.9302 37.6738L84.9478 40.3992L83.6784 39.2294L86.9515 36.0559ZM84.2758 41.5193H86.6155L93.2984 57.7725H89.9881L88.6316 54.3999H82.1228L80.6916 57.7725H77.3937L84.2882 41.5193H84.2758ZM71.8059 17.1021H80.032V18.7449H73.5979V23.4864H79.8702V25.1416H73.5979V31.3641H80.032V33.0069H71.8059V17.0897V17.1021ZM57.743 17.1021H67.2385V18.7449H63.3806V33.0069H61.5885V18.7449H57.7554V17.1021H57.743ZM63.7663 61.5185L65.2473 62.9248L61.1404 66.2352L57.1083 62.9248L58.5394 61.5185L61.1404 63.6466L63.7663 61.5185ZM47.0402 16.8408C51.5453 16.8408 55.2913 20.5618 55.2913 25.0669C55.2913 29.5721 51.5453 33.2931 46.9406 33.2931C44.6757 33.2931 42.3609 32.2477 40.7928 30.5054C39.4612 28.9996 38.7394 27.1204 38.7394 24.9674C38.7394 20.5743 42.5476 16.8408 47.0402 16.8408ZM21.0923 55.1217L23.0959 53.1927C23.8053 54.5493 25 55.3208 26.4312 55.3208C27.8624 55.3208 28.8829 54.3626 28.8829 53.0807C28.8829 52.4336 28.5967 51.886 28.0242 51.4878C27.7131 51.2513 27.1157 51.0149 25.809 50.5295C22.9466 49.509 21.9012 48.3392 21.9012 46.236C21.9012 43.5603 24.0044 41.6064 26.8668 41.6064C28.5967 41.6064 30.2021 42.2038 31.5337 43.3736L29.9158 45.4893C29.0945 44.5808 28.3353 44.2074 27.3397 44.2074C26.0703 44.2074 25.0996 44.9915 25.0996 45.9746C25.0996 46.8333 25.6472 47.2938 27.5139 47.9783C29.2687 48.6254 29.9656 48.9863 30.6874 49.5712C31.6208 50.3553 32.0937 51.5002 32.0937 52.919C32.0937 56.0427 29.8536 58.1583 26.5681 58.1583C24.2782 58.1583 22.5359 57.2001 21.1047 55.1342L21.0923 55.1217ZM31.3221 76.3032C30.4136 77.2615 29.1318 77.7095 27.2401 77.7095H25.2365V83.596H22.1377V67.6912H26.7921C28.858 67.6912 29.9905 68.0272 30.9861 68.9108C32.0066 69.8442 32.6164 71.2256 32.6164 72.7564C32.6164 74.1129 32.131 75.432 31.3221 76.3156V76.3032ZM34.06 33.0193H32.2679V25.2412H24.1538V33.0193H22.3617V17.1021H24.1538V23.586H32.2679V17.1021H34.06V33.0193ZM34.5454 44.5434V41.8429H44.7752V44.5434H41.191V57.7601H38.0922V44.5434H34.5329H34.5454ZM43.7049 83.9693C38.926 83.9693 35.2796 80.3229 35.2796 75.544C35.2796 70.7651 39.1003 67.3428 43.8169 67.3428C48.5336 67.3428 52.2796 70.9892 52.2796 75.6685C52.2796 80.3478 48.5336 83.9693 43.6925 83.9693H43.7049ZM50.027 54.3999L48.5958 57.7725H45.2979L52.1925 41.5193H54.5321L61.2151 57.7725H57.9047L56.5482 54.3999H50.027ZM60.7547 83.9942C58.4648 83.9942 56.7225 83.036 55.2913 80.9701L57.2949 79.0411C58.0043 80.3976 59.2115 81.1692 60.6302 81.1692C62.0489 81.1692 63.0943 80.2109 63.0943 78.9291C63.0943 78.282 62.8081 77.7344 62.2232 77.3237C61.912 77.0872 61.3147 76.8508 60.0079 76.3654C57.1456 75.3449 56.1002 74.1751 56.1002 72.0719C56.1002 69.3962 58.2034 67.4423 61.0658 67.4423C62.8081 67.4423 64.4011 68.0397 65.7327 69.2095L64.1148 71.3376C63.3059 70.4291 62.5343 70.0433 61.5387 70.0433C60.2817 70.0433 59.2986 70.8274 59.2986 71.8105C59.2986 72.6692 59.8462 73.1173 61.7129 73.8142C63.4801 74.4489 64.177 74.8098 64.8864 75.4072C65.8198 76.1912 66.2927 77.3361 66.2927 78.7424C66.2927 81.8786 64.0526 83.9942 60.7547 83.9942ZM67.3879 51.3758V57.7725H64.289V41.8553H68.8937C70.6609 41.8553 72.0672 42.2411 72.9508 42.9754C73.934 43.7843 74.5313 45.1532 74.5313 46.5595C74.5313 47.9658 73.9837 49.3099 73.1001 50.069C72.4779 50.5917 71.9179 50.8904 70.9098 51.0771L75.9127 57.785H72.0921L67.7985 51.3882H67.3879V51.3758ZM78.7875 70.3918H75.2034V83.6084H72.1045V70.3918H68.5452V67.7037H78.7751V70.3918H78.7875ZM91.9046 83.6084L90.5481 80.2483H84.0393L82.6082 83.6084H79.3102L86.2048 67.3677H88.5444L95.215 83.6084H91.9046ZM113.733 7.76833C115.488 7.76833 116.894 9.18706 116.894 10.9294C116.894 12.6717 115.476 14.0904 113.733 14.0904C111.991 14.0904 110.585 12.6717 110.585 10.9294C110.585 9.18706 111.991 7.76833 113.733 7.76833ZM113.733 96.2277C111.991 96.2277 110.585 94.809 110.585 93.0667C110.585 91.3244 112.003 89.9056 113.733 89.9056C115.463 89.9056 116.907 91.3244 116.907 93.0667C116.907 94.809 115.488 96.2277 113.733 96.2277ZM113.733 85.9605C111.991 85.9605 110.585 84.5418 110.585 82.7995C110.585 81.0572 112.003 79.6385 113.733 79.6385C115.463 79.6385 116.907 81.0572 116.907 82.7995C116.907 84.5418 115.488 85.9605 113.733 85.9605ZM113.733 75.6934C111.991 75.6934 110.585 74.2747 110.585 72.5323C110.585 70.79 112.003 69.3713 113.733 69.3713C115.463 69.3713 116.907 70.79 116.907 72.5323C116.907 74.2747 115.488 75.6934 113.733 75.6934ZM113.733 65.4262C111.991 65.4262 110.585 64.0075 110.585 62.2652C110.585 60.5229 112.003 59.1041 113.733 59.1041C115.463 59.1041 116.907 60.5229 116.907 62.2652C116.907 64.0075 115.488 65.4262 113.733 65.4262ZM113.733 55.1591C111.991 55.1591 110.585 53.7403 110.585 51.998C110.585 50.2557 112.003 48.837 113.733 48.837C115.463 48.837 116.907 50.2557 116.907 51.998C116.907 53.7403 115.488 55.1591 113.733 55.1591ZM113.733 44.8919C111.991 44.8919 110.585 43.4732 110.585 41.7309C110.585 39.9886 112.003 38.5698 113.733 38.5698C115.463 38.5698 116.907 39.9886 116.907 41.7309C116.907 43.4732 115.488 44.8919 113.733 44.8919ZM113.733 34.6247C111.991 34.6247 110.585 33.206 110.585 31.4637C110.585 29.7214 112.003 28.3027 113.733 28.3027C115.463 28.3027 116.907 29.7214 116.907 31.4637C116.907 33.206 115.488 34.6247 113.733 34.6247ZM113.733 24.3576C111.991 24.3576 110.585 22.9388 110.585 21.1965C110.585 19.4542 112.003 18.0355 113.733 18.0355C115.463 18.0355 116.907 19.4542 116.907 21.1965C116.907 22.9388 115.488 24.3576 113.733 24.3576ZM138.126 79.0784L139.27 83.9942L134.952 81.3932L130.634 83.9942L131.779 79.0784L127.97 75.7805L132.998 75.3449L134.964 70.7029L136.918 75.3449L141.946 75.7805L138.138 79.0784H138.126ZM138.126 50.9526L139.27 55.8684L134.952 53.2674L130.634 55.8684L131.779 50.9526L127.97 47.6547L132.998 47.2191L134.964 42.5771L136.918 47.2191L141.946 47.6547L138.138 50.9526H138.126ZM138.126 22.8393L139.27 27.7551L134.952 25.1541L130.634 27.7551L131.779 22.8393L127.97 19.5413L132.998 19.1058L134.964 14.4638L136.931 19.1058L141.959 19.5413L138.15 22.8393H138.126Z" fill="white"/>
</g>
<path d="M38.1037 121.26V109.917H39.6431V119.753L39.5621 121.26H38.1037ZM42.3006 121.454C41.62 121.454 41.0259 121.276 40.5181 120.919C40.0212 120.563 39.6377 120.066 39.3676 119.429C39.0975 118.791 38.9625 118.051 38.9625 117.209C38.9625 116.355 39.0975 115.615 39.3676 114.989C39.6377 114.351 40.0212 113.854 40.5181 113.498C41.0259 113.141 41.62 112.963 42.3006 112.963C43.0244 112.963 43.6618 113.141 44.2127 113.498C44.7637 113.854 45.1904 114.351 45.4929 114.989C45.8061 115.615 45.9628 116.355 45.9628 117.209C45.9628 118.051 45.8061 118.791 45.4929 119.429C45.1904 120.066 44.7637 120.563 44.2127 120.919C43.6618 121.276 43.0244 121.454 42.3006 121.454ZM41.9279 120.061C42.414 120.061 42.8407 119.942 43.208 119.704C43.5753 119.456 43.8616 119.121 44.0669 118.699C44.2829 118.267 44.391 117.77 44.391 117.209C44.391 116.647 44.2883 116.155 44.0831 115.734C43.8778 115.302 43.5915 114.967 43.2243 114.729C42.857 114.481 42.4302 114.357 41.9441 114.357C41.5012 114.357 41.1015 114.481 40.745 114.729C40.3993 114.967 40.1292 115.302 39.9348 115.734C39.7403 116.166 39.6431 116.658 39.6431 117.209C39.6431 117.77 39.7403 118.267 39.9348 118.699C40.1292 119.121 40.3993 119.456 40.745 119.704C41.0907 119.942 41.485 120.061 41.9279 120.061ZM48.3812 124.695C48.1435 124.695 47.8788 124.652 47.5872 124.565C47.3063 124.479 47.0146 124.366 46.7121 124.225L47.2793 122.961C47.5169 123.069 47.7222 123.15 47.895 123.204C48.0787 123.258 48.2245 123.285 48.3326 123.285C48.6026 123.285 48.8295 123.21 49.0131 123.058C49.2076 122.907 49.3642 122.697 49.4831 122.426L50.4229 120.206L53.3073 113.158H54.9601L51.1197 122.264C50.9144 122.761 50.6984 123.193 50.4715 123.561C50.2447 123.928 49.9638 124.209 49.6289 124.403C49.3048 124.598 48.8889 124.695 48.3812 124.695ZM50.0016 121.26L46.4528 113.158H48.0895L51.0225 120.19L51.4924 121.26H50.0016ZM60.4725 121.26V109.917H62.1578L65.9172 115.475L69.6604 109.917H71.3457V121.26H69.7576V112.477L65.901 118.165L62.0606 112.493V121.26H60.4725ZM78.5507 116.544L77.1085 115.993L80.7869 109.917H82.6342L78.5507 116.544ZM76.9788 121.26V115.815H78.5831V121.26H76.9788ZM77.0113 116.544L72.9277 109.917H74.7588L78.4372 115.993L77.0113 116.544ZM84.2094 121.26V109.917H88.0336C88.7898 109.917 89.4542 110.068 90.0268 110.37C90.6101 110.662 91.0639 111.073 91.3879 111.602C91.7228 112.12 91.8903 112.725 91.8903 113.417C91.8903 114.097 91.712 114.702 91.3555 115.232C91.0098 115.761 90.5345 116.177 89.9296 116.479C89.3246 116.771 88.644 116.917 87.8878 116.917H85.7974V121.26H84.2094ZM90.5453 121.26L87.8554 116.625L89.1193 115.783L92.344 121.26H90.5453ZM85.7974 115.459H88.1795C88.5684 115.459 88.9141 115.372 89.2166 115.199C89.5298 115.016 89.7783 114.773 89.962 114.47C90.1564 114.157 90.2536 113.806 90.2536 113.417C90.2536 112.812 90.043 112.32 89.6217 111.942C89.2004 111.564 88.6548 111.375 87.985 111.375H85.7974V115.459ZM94.4321 121.26V109.917H101.254V111.375H96.0201V114.746H100.736V116.172H96.0201V119.801H101.287V121.26H94.4321ZM107.668 121.454C107.063 121.454 106.512 121.384 106.015 121.244C105.529 121.103 105.102 120.914 104.735 120.676C104.379 120.428 104.082 120.152 103.844 119.85C103.606 119.548 103.439 119.229 103.342 118.894L104.881 118.392C105.043 118.835 105.351 119.218 105.805 119.542C106.258 119.866 106.815 120.034 107.474 120.044C108.273 120.044 108.9 119.888 109.353 119.575C109.818 119.25 110.05 118.824 110.05 118.294C110.05 117.808 109.85 117.414 109.451 117.111C109.051 116.798 108.522 116.56 107.863 116.398L106.55 116.058C106.032 115.918 105.556 115.718 105.124 115.459C104.703 115.199 104.368 114.87 104.119 114.47C103.871 114.07 103.747 113.59 103.747 113.028C103.747 111.991 104.082 111.181 104.751 110.597C105.432 110.014 106.41 109.722 107.684 109.722C108.419 109.722 109.056 109.841 109.596 110.079C110.137 110.306 110.58 110.608 110.925 110.986C111.282 111.364 111.536 111.78 111.687 112.234L110.147 112.752C109.964 112.266 109.65 111.877 109.208 111.586C108.765 111.283 108.219 111.132 107.571 111.132C106.89 111.132 106.35 111.294 105.95 111.618C105.562 111.942 105.367 112.385 105.367 112.947C105.367 113.422 105.518 113.79 105.821 114.049C106.134 114.297 106.55 114.486 107.069 114.616L108.381 114.94C109.44 115.199 110.255 115.631 110.828 116.236C111.411 116.831 111.703 117.484 111.703 118.197C111.703 118.813 111.546 119.369 111.233 119.866C110.931 120.352 110.477 120.741 109.872 121.033C109.278 121.314 108.543 121.454 107.668 121.454ZM118.838 121.454C117.736 121.454 116.758 121.206 115.905 120.709C115.051 120.212 114.382 119.52 113.896 118.635C113.42 117.749 113.183 116.733 113.183 115.588C113.183 114.443 113.42 113.433 113.896 112.558C114.382 111.672 115.046 110.981 115.889 110.484C116.731 109.976 117.704 109.722 118.805 109.722C119.907 109.722 120.88 109.976 121.722 110.484C122.565 110.981 123.224 111.672 123.699 112.558C124.175 113.433 124.412 114.443 124.412 115.588C124.412 116.733 124.175 117.749 123.699 118.635C123.224 119.52 122.565 120.212 121.722 120.709C120.89 121.206 119.929 121.454 118.838 121.454ZM118.838 119.996C119.616 119.996 120.302 119.807 120.896 119.429C121.49 119.051 121.955 118.532 122.289 117.873C122.624 117.214 122.792 116.452 122.792 115.588C122.792 114.735 122.619 113.979 122.273 113.32C121.938 112.65 121.468 112.126 120.863 111.748C120.269 111.37 119.583 111.181 118.805 111.181C118.028 111.181 117.336 111.37 116.731 111.748C116.126 112.126 115.651 112.65 115.305 113.32C114.97 113.979 114.803 114.735 114.803 115.588C114.803 116.452 114.976 117.214 115.322 117.873C115.667 118.532 116.143 119.051 116.748 119.429C117.363 119.807 118.06 119.996 118.838 119.996ZM126.556 121.26V109.917H130.38C131.136 109.917 131.801 110.068 132.373 110.37C132.957 110.662 133.41 111.073 133.735 111.602C134.069 112.12 134.237 112.725 134.237 113.417C134.237 114.097 134.059 114.702 133.702 115.232C133.356 115.761 132.881 116.177 132.276 116.479C131.671 116.771 130.991 116.917 130.234 116.917H128.144V121.26H126.556ZM132.892 121.26L130.202 116.625L131.466 115.783L134.691 121.26H132.892ZM128.144 115.459H130.526C130.915 115.459 131.261 115.372 131.563 115.199C131.876 115.016 132.125 114.773 132.309 114.47C132.503 114.157 132.6 113.806 132.6 113.417C132.6 112.812 132.39 112.32 131.968 111.942C131.547 111.564 131.001 111.375 130.332 111.375H128.144V115.459ZM138.985 121.26V111.375H135.436V109.917H144.138V111.375H140.589V121.26H138.985ZM149.429 121.454C148.824 121.454 148.273 121.384 147.776 121.244C147.29 121.103 146.864 120.914 146.496 120.676C146.14 120.428 145.843 120.152 145.605 119.85C145.367 119.548 145.2 119.229 145.103 118.894L146.642 118.392C146.804 118.835 147.112 119.218 147.566 119.542C148.019 119.866 148.576 120.034 149.235 120.044C150.034 120.044 150.661 119.888 151.114 119.575C151.579 119.25 151.811 118.824 151.811 118.294C151.811 117.808 151.611 117.414 151.212 117.111C150.812 116.798 150.283 116.56 149.624 116.398L148.311 116.058C147.793 115.918 147.317 115.718 146.885 115.459C146.464 115.199 146.129 114.87 145.88 114.47C145.632 114.07 145.508 113.59 145.508 113.028C145.508 111.991 145.843 111.181 146.512 110.597C147.193 110.014 148.171 109.722 149.445 109.722C150.18 109.722 150.817 109.841 151.358 110.079C151.898 110.306 152.341 110.608 152.686 110.986C153.043 111.364 153.297 111.78 153.448 112.234L151.908 112.752C151.725 112.266 151.412 111.877 150.969 111.586C150.526 111.283 149.98 111.132 149.332 111.132C148.651 111.132 148.111 111.294 147.712 111.618C147.323 111.942 147.128 112.385 147.128 112.947C147.128 113.422 147.279 113.79 147.582 114.049C147.895 114.297 148.311 114.486 148.83 114.616L150.142 114.94C151.201 115.199 152.017 115.631 152.589 116.236C153.172 116.831 153.464 117.484 153.464 118.197C153.464 118.813 153.307 119.369 152.994 119.866C152.692 120.352 152.238 120.741 151.633 121.033C151.039 121.314 150.304 121.454 149.429 121.454Z" fill="white"/>
<defs>
<clipPath id="clip0_2008_781">
<rect width="153.746" height="102.398" fill="white" transform="translate(0.769531 0.861328)"/>
</clipPath>
</defs>
</svg>
