<svg width="20" height="19" viewBox="0 0 20 19" fill="none" xmlns="http://www.w3.org/2000/svg">
<path d="M18.481 12.75L14.0644 10.7709L14.0522 10.7653C13.823 10.6672 13.5728 10.6279 13.3245 10.6508C13.0762 10.6737 12.8375 10.7582 12.63 10.8965C12.6056 10.9127 12.5821 10.9302 12.5597 10.949L10.2779 12.8943C8.83223 12.1922 7.33974 10.7109 6.63755 9.28403L8.58567 6.96747C8.60442 6.94403 8.62224 6.92059 8.63911 6.89528C8.77451 6.68837 8.85666 6.45121 8.87825 6.20488C8.89984 5.95855 8.8602 5.71071 8.76286 5.4834V5.47215L6.77817 1.04809C6.64949 0.751152 6.42823 0.503793 6.14741 0.34294C5.86659 0.182087 5.54128 0.116367 5.22005 0.155592C3.94971 0.322754 2.78365 0.946624 1.93967 1.91068C1.09569 2.87474 0.631501 4.11305 0.633798 5.39434C0.633798 12.8381 6.69005 18.8943 14.1338 18.8943C15.4151 18.8966 16.6534 18.4324 17.6175 17.5885C18.5815 16.7445 19.2054 15.5784 19.3725 14.3081C19.4118 13.987 19.3463 13.6617 19.1856 13.3809C19.0249 13.1001 18.7778 12.8788 18.481 12.75ZM14.1338 17.3943C10.9523 17.3909 7.90204 16.1255 5.65235 13.8758C3.40267 11.6261 2.13727 8.57587 2.1338 5.39434C2.13027 4.47886 2.4601 3.5934 3.06168 2.90332C3.66326 2.21323 4.49546 1.76572 5.40286 1.64434C5.40249 1.64808 5.40249 1.65185 5.40286 1.65559L7.37161 6.06184L5.4338 8.38122C5.41413 8.40385 5.39626 8.42798 5.38036 8.4534C5.23928 8.66989 5.15652 8.91915 5.14009 9.17702C5.12367 9.4349 5.17414 9.69264 5.28661 9.92528C6.13598 11.6625 7.8863 13.3997 9.64223 14.2481C9.87658 14.3595 10.1358 14.4082 10.3946 14.3895C10.6534 14.3708 10.9029 14.2852 11.1188 14.1412C11.1429 14.125 11.166 14.1075 11.1882 14.0887L13.4672 12.1443L17.8735 14.1178C17.8735 14.1178 17.881 14.1178 17.8838 14.1178C17.7639 15.0265 17.3171 15.8603 16.6268 16.4634C15.9366 17.0665 15.0504 17.3974 14.1338 17.3943Z" fill="#AF9B78"/>
</svg>
