<svg width="29" height="29" viewBox="0 0 29 29" fill="none" xmlns="http://www.w3.org/2000/svg">
<path fill-rule="evenodd" clip-rule="evenodd" d="M4.48233 28.8535C3.36465 28.8535 2.30295 28.4096 1.50318 27.6199C0.703407 26.8301 0.269531 25.7584 0.269531 24.6407V5.06631C0.269531 3.94863 0.713404 2.88693 1.50318 2.08716C2.29295 1.28739 3.36465 0.853516 4.48233 0.853516H24.0567C25.1744 0.853516 26.2361 1.29739 27.0359 2.08716C27.8357 2.87694 28.2695 3.94863 28.2695 5.06631V24.6407C28.2695 25.7584 27.8257 26.8201 27.0359 27.6199C26.2461 28.4196 25.1744 28.8535 24.0567 28.8535H4.48233ZM21.5774 17.0369H18.6183V26.8141H24.0567C24.3424 26.8149 24.6253 26.7592 24.8894 26.6503C25.1534 26.5413 25.3933 26.3813 25.5953 26.1793C25.7973 25.9773 25.9573 25.7374 26.0663 25.4734C26.1752 25.2093 26.2309 24.9264 26.2301 24.6407V5.06631C26.2304 4.78083 26.1743 4.49809 26.0652 4.23428C25.9561 3.97048 25.796 3.73078 25.5941 3.52891C25.3923 3.32705 25.1526 3.16697 24.8888 3.05784C24.625 2.94871 24.3422 2.89267 24.0567 2.89293H4.48233C3.9064 2.89452 3.35451 3.124 2.94726 3.53125C2.54002 3.93849 2.31053 4.49038 2.30895 5.06631V24.6407C2.31053 25.2166 2.54002 25.7685 2.94726 26.1758C3.35451 26.583 3.9064 26.8125 4.48233 26.8141H15.3592V17.0369H12.1002V13.7778H15.3592V12.0263C15.3592 8.70727 16.9748 7.24769 19.738 7.24769C21.0316 7.24769 21.7274 7.34166 22.0573 7.38765L22.0773 7.38965V10.5088H20.1978C19.2501 10.5088 18.8022 10.9146 18.6663 11.7324C18.6336 11.9454 18.6182 12.1607 18.6203 12.3762V13.7698H22.0393L21.5734 17.0289L21.5774 17.0369Z" fill="#AF9B78"/>
</svg>
