<svg width="103" height="69" viewBox="0 0 103 69" fill="none" xmlns="http://www.w3.org/2000/svg">
<g clip-path="url(#clip0_652_221)">
<path d="M30.989 20.8348C33.3973 20.8348 35.3338 18.8983 35.3338 16.4736C35.3338 14.0488 33.4138 12.1123 31.0222 12.1123C28.6305 12.1123 26.7023 14.0654 26.7023 16.4074C26.7023 17.7066 27.1657 18.7825 28.0512 19.6266C28.8622 20.3879 29.9463 20.8265 30.989 20.8265V20.8348Z" fill="white"/>
<path d="M33.6865 34.3156H36.6988L35.2257 30.5088L33.6865 34.3156Z" fill="white"/>
<path d="M45.2061 29.3008H44.5689V32.5035H45.173C46.4723 32.5035 47.184 31.9324 47.184 30.8897C47.184 29.847 46.5054 29.3008 45.1979 29.3008H45.2061Z" fill="white"/>
<path d="M28.87 46.4736C26.95 46.4736 25.3528 48.1039 25.3528 50.0735C25.3528 52.0431 26.9169 53.7562 28.8865 53.7562C30.8561 53.7562 32.4037 52.1176 32.4037 50.1066C32.4037 48.0957 30.823 46.4736 28.87 46.4736Z" fill="white"/>
<path d="M17.2593 46.6137H16.5393V49.6923H17.3834C18.6744 49.6923 19.3199 49.1875 19.3199 48.1696C19.3199 47.6565 19.113 47.2013 18.7737 46.9448C18.4593 46.7048 18.0124 46.6055 17.251 46.6055L17.2593 46.6137Z" fill="white"/>
<path d="M56.5607 30.5088L55.0215 34.3156H58.0338L56.5607 30.5088Z" fill="white"/>
<path d="M56.3033 51.4953H59.324L57.8426 47.6885L56.3033 51.4953Z" fill="white"/>
<path d="M102.507 4.97821V0.376953H97.8558C97.7813 1.47761 96.8793 2.34655 95.7621 2.34655C94.6449 2.34655 93.7428 1.46934 93.6766 0.376953H91.0284C90.9622 1.47761 90.0602 2.34655 88.943 2.34655C87.8258 2.34655 86.9237 1.46934 86.8492 0.376953H84.201C84.1348 1.47761 83.2328 2.34655 82.1156 2.34655C80.9984 2.34655 80.0963 1.46934 80.0218 0.376953H77.3736C77.3074 1.47761 76.4054 2.34655 75.2882 2.34655C74.171 2.34655 73.2689 1.46934 73.1944 0.376953H70.5462C70.48 1.47761 69.578 2.34655 68.4608 2.34655C67.3436 2.34655 66.4415 1.46934 66.367 0.376953H63.7106C63.6444 1.47761 62.7423 2.34655 61.6251 2.34655C60.5079 2.34655 59.6058 1.46934 59.5396 0.376953H56.8914C56.8252 1.47761 55.9232 2.34655 54.806 2.34655C53.6888 2.34655 52.7867 1.46934 52.7122 0.376953H50.064C49.9978 1.47761 49.0875 2.34655 47.9703 2.34655C46.8531 2.34655 45.951 1.46934 45.8848 0.376953H43.2284C43.1622 1.47761 42.2601 2.34655 41.1429 2.34655C40.0257 2.34655 39.1236 1.46934 39.0492 0.376953H36.401C36.3348 1.47761 35.4327 2.34655 34.3155 2.34655C33.1983 2.34655 32.2962 1.46934 32.2218 0.376953H29.5736C29.5074 1.47761 28.6053 2.34655 27.4881 2.34655C26.3709 2.34655 25.4688 1.46934 25.3944 0.376953H22.7462C22.68 1.47761 21.7779 2.34655 20.6524 2.34655C19.5269 2.34655 18.6332 1.47761 18.567 0.376953H15.9188C15.8443 1.47761 14.9505 2.34655 13.825 2.34655C12.6995 2.34655 11.8058 1.47761 11.7313 0.376953H9.08308C9.01688 1.47761 8.11483 2.34655 6.99762 2.34655C5.88041 2.34655 4.97837 1.47761 4.90389 0.376953H0.269531V4.96993C1.42812 4.97821 2.36327 5.91335 2.36327 7.07194C2.36327 8.23053 1.42812 9.16568 0.269531 9.17395V11.7973C1.42812 11.8056 2.36327 12.7408 2.36327 13.8993C2.36327 15.0579 1.42812 15.9931 0.269531 16.0014V18.6247C1.42812 18.6247 2.36327 19.5682 2.36327 20.7267C2.36327 21.8853 1.42812 22.8205 0.269531 22.8288V25.4521C1.42812 25.4521 2.36327 26.3956 2.36327 27.5541C2.36327 28.7127 1.42812 29.6479 0.269531 29.6479V32.2713C1.42812 32.2713 2.36327 33.2147 2.36327 34.3733C2.36327 35.5319 1.42812 36.467 0.269531 36.4753V39.0987C1.42812 39.0987 2.36327 40.0421 2.36327 41.2007C2.36327 42.3593 1.42812 43.2944 0.269531 43.3027V45.9261C1.42812 45.9261 2.36327 46.8695 2.36327 48.0281C2.36327 49.1867 1.42812 50.1218 0.269531 50.1301V52.7535C1.42812 52.7535 2.36327 53.6969 2.36327 54.8555C2.36327 56.0141 1.42812 56.9492 0.269531 56.9575V59.5809C1.42812 59.5809 2.36327 60.5243 2.36327 61.6829C2.36327 62.8415 1.42812 63.7849 0.269531 63.7849V68.4606H4.91216C4.93699 67.3269 5.86386 66.4083 7.0059 66.4083C8.14794 66.4083 9.07481 67.3269 9.09964 68.4606H11.7313C11.7561 67.3269 12.683 66.4083 13.825 66.4083C14.9671 66.4083 15.8939 67.3269 15.927 68.4606H18.5587C18.5835 67.3269 19.5104 66.4083 20.6524 66.4083C21.7945 66.4083 22.7213 67.3269 22.7462 68.4606H25.3778C25.4026 67.3269 26.3295 66.4083 27.4798 66.4083C28.6301 66.4083 29.5487 67.3269 29.5736 68.4606H32.2052C32.23 67.3269 33.1652 66.4083 34.3072 66.4083C35.4493 66.4083 36.3761 67.3269 36.401 68.4606H39.0326C39.0574 67.3269 39.9843 66.4083 41.1346 66.4083C42.2849 66.4083 43.2035 67.3269 43.2284 68.4606H45.86C45.8848 67.3269 46.8117 66.4083 47.9537 66.4083C49.0958 66.4083 50.0227 67.3269 50.0475 68.4606H52.6791C52.704 67.3269 53.6308 66.4083 54.7729 66.4083C55.9149 66.4083 56.8418 67.3269 56.8749 68.4606H59.5065C59.5314 67.3269 60.4582 66.4083 61.6003 66.4083C62.7423 66.4083 63.6775 67.3269 63.694 68.4606H66.3257C66.3505 67.3269 67.2774 66.4083 68.4194 66.4083C69.5614 66.4083 70.4883 67.3269 70.5131 68.4606H73.1448C73.1696 67.3269 74.0965 66.4083 75.2385 66.4083C76.3806 66.4083 77.3074 67.3269 77.3323 68.4606H79.9639C79.9887 67.3269 80.9156 66.4083 82.0576 66.4083C83.1997 66.4083 84.1265 67.3269 84.1514 68.4606H86.783C86.8079 67.3269 87.7347 66.4083 88.8768 66.4083C90.0188 66.4083 90.9457 67.3269 90.9705 68.4606H93.6021C93.627 67.3269 94.5538 66.4083 95.6959 66.4083C96.8379 66.4083 97.7648 67.3269 97.7979 68.4606H102.441V63.7849C101.307 63.7435 100.405 62.8249 100.405 61.6829C100.405 60.5408 101.307 59.6222 102.441 59.5891V56.9492C101.307 56.9161 100.405 55.9892 100.405 54.8555C100.405 53.7217 101.307 52.7948 102.441 52.7617V50.1301C101.307 50.097 100.405 49.1701 100.405 48.0363C100.405 46.9026 101.307 45.9757 102.441 45.9426V43.3027C101.307 43.2696 100.405 42.3427 100.405 41.2089C100.405 40.0752 101.307 39.1483 102.441 39.1152V36.4836C101.307 36.4422 100.405 35.5236 100.405 34.3898C100.405 33.2561 101.307 32.3292 102.441 32.2961V29.6644C101.307 29.6231 100.405 28.7045 100.405 27.5707C100.405 26.4369 101.307 25.5101 102.441 25.477V22.8453C101.307 22.8039 100.405 21.8853 100.405 20.7516C100.405 19.6178 101.307 18.6992 102.441 18.6578V16.0179C101.307 15.9848 100.405 15.0579 100.405 13.9242C100.405 12.7904 101.307 11.8635 102.441 11.8304V9.19051C101.307 9.1574 100.405 8.23053 100.405 7.09677C100.405 5.96301 101.307 5.03614 102.441 5.00303L102.507 4.97821ZM56.8914 11.1767H58.0831V20.6605H60.9796V21.7529H56.8914V11.1684V11.1767ZM57.5783 23.7805L58.8941 24.8563L56.2459 26.6686L55.4018 25.8907L57.5783 23.7805ZM55.799 27.4135H57.3549L61.7989 38.2214H59.5976L58.6955 35.9787H54.3674L53.4157 38.2214H51.2226L55.8073 27.4135H55.799ZM47.5069 11.1767H52.9771V12.269H48.6986V15.4221H52.8695V16.5227H48.6986V20.6605H52.9771V21.7529H47.5069V11.1684V11.1767ZM38.1554 11.1767H44.4697V12.269H41.9043V21.7529H40.7126V12.269H38.1637V11.1767H38.1554ZM42.1608 40.7124L43.1456 41.6476L40.4146 43.8489L37.7333 41.6476L38.685 40.7124L40.4146 42.1275L42.1608 40.7124ZM31.0383 11.0029C34.0341 11.0029 36.5251 13.4773 36.5251 16.4731C36.5251 19.4688 34.0341 21.9433 30.9721 21.9433C29.466 21.9433 27.9267 21.2481 26.884 20.0895C25.9985 19.0882 25.5185 17.8385 25.5185 16.4069C25.5185 13.4856 28.0508 11.0029 31.0383 11.0029ZM13.7836 36.4587L15.116 35.176C15.5877 36.078 16.3822 36.5911 17.3339 36.5911C18.2856 36.5911 18.9642 35.9539 18.9642 35.1015C18.9642 34.6712 18.7739 34.3071 18.3932 34.0422C18.1863 33.885 17.7891 33.7278 16.9201 33.405C15.0167 32.7264 14.3216 31.9485 14.3216 30.5499C14.3216 28.7707 15.7201 27.4714 17.6235 27.4714C18.7739 27.4714 19.8414 27.8686 20.7269 28.6465L19.6511 30.0534C19.1049 29.4493 18.6001 29.201 17.938 29.201C17.0939 29.201 16.4484 29.7224 16.4484 30.3761C16.4484 30.9472 16.8125 31.2534 18.0539 31.7085C19.2207 32.1388 19.6842 32.3788 20.1642 32.7678C20.7848 33.2892 21.0993 34.0505 21.0993 34.9939C21.0993 37.0711 19.6097 38.478 17.4249 38.478C15.9022 38.478 14.7436 37.8408 13.7919 36.467L13.7836 36.4587ZM20.5862 50.5439C19.9821 51.1811 19.1297 51.479 17.8718 51.479H16.5394V55.3934H14.4788V44.8171H17.5739C18.9476 44.8171 19.7007 45.0406 20.3628 45.6281C21.0414 46.2488 21.4469 47.1674 21.4469 48.1853C21.4469 49.0873 21.1241 49.9646 20.5862 50.5521V50.5439ZM22.4069 21.7612H21.2152V16.5889H15.8195V21.7612H14.6278V11.1767H15.8195V15.4883H21.2152V11.1767H22.4069V21.7612ZM22.7296 29.4244V27.6286H29.5322V29.4244H27.1488V38.2132H25.0882V29.4244H22.7213H22.7296ZM28.8205 55.6417C25.6426 55.6417 23.2179 53.2169 23.2179 50.039C23.2179 46.8612 25.7585 44.5854 28.895 44.5854C32.0314 44.5854 34.5224 47.0102 34.5224 50.1218C34.5224 53.2334 32.0314 55.6417 28.8122 55.6417H28.8205ZM33.0245 35.9787L32.0728 38.2214H29.8798L34.4645 27.4135H36.0203L40.4643 38.2214H38.263L37.3609 35.9787H33.0245ZM40.1581 55.6582C38.6354 55.6582 37.4768 55.021 36.5251 53.6472L37.8575 52.3645C38.3292 53.2665 39.1319 53.7796 40.0753 53.7796C41.0188 53.7796 41.7139 53.1424 41.7139 52.29C41.7139 51.8597 41.5236 51.4956 41.1346 51.2225C40.9277 51.0652 40.5305 50.908 39.6616 50.5852C37.7582 49.9066 37.063 49.1287 37.063 47.7301C37.063 45.9509 38.4616 44.6516 40.365 44.6516C41.5236 44.6516 42.5829 45.0488 43.4683 45.8267L42.3925 47.2419C41.8546 46.6378 41.3415 46.3812 40.6795 46.3812C39.8436 46.3812 39.1898 46.9026 39.1898 47.5564C39.1898 48.1274 39.554 48.4253 40.7953 48.8887C41.9705 49.3108 42.4339 49.5508 42.9056 49.948C43.5263 50.4694 43.8408 51.2307 43.8408 52.1659C43.8408 54.2513 42.3511 55.6582 40.1581 55.6582ZM44.569 33.9678V38.2214H42.5084V27.6369H45.5704C46.7455 27.6369 47.6806 27.8934 48.2682 28.3817C48.922 28.9196 49.3192 29.8299 49.3192 30.7651C49.3192 31.7002 48.9551 32.594 48.3675 33.0988C47.9537 33.4464 47.5813 33.645 46.911 33.7691L50.2378 38.2297H47.6972L44.8421 33.976H44.569V33.9678ZM52.1495 46.6129H49.7661V55.4017H47.7055V46.6129H45.3386V44.8254H52.1412V46.6129H52.1495ZM60.872 55.4017L59.97 53.1672H55.6418L54.6901 55.4017H52.4971L57.0818 44.602H58.6376L63.0733 55.4017H60.872ZM75.3875 4.96993C76.5543 4.96993 77.4895 5.91335 77.4895 7.07194C77.4895 8.23053 76.5461 9.17395 75.3875 9.17395C74.2289 9.17395 73.2937 8.23053 73.2937 7.07194C73.2937 5.91335 74.2289 4.96993 75.3875 4.96993ZM75.3875 63.7932C74.2289 63.7932 73.2937 62.8497 73.2937 61.6911C73.2937 60.5326 74.2372 59.5891 75.3875 59.5891C76.5378 59.5891 77.4978 60.5326 77.4978 61.6911C77.4978 62.8497 76.5543 63.7932 75.3875 63.7932ZM75.3875 56.9658C74.2289 56.9658 73.2937 56.0223 73.2937 54.8637C73.2937 53.7052 74.2372 52.7617 75.3875 52.7617C76.5378 52.7617 77.4978 53.7052 77.4978 54.8637C77.4978 56.0223 76.5543 56.9658 75.3875 56.9658ZM75.3875 50.1384C74.2289 50.1384 73.2937 49.1949 73.2937 48.0363C73.2937 46.8778 74.2372 45.9343 75.3875 45.9343C76.5378 45.9343 77.4978 46.8778 77.4978 48.0363C77.4978 49.1949 76.5543 50.1384 75.3875 50.1384ZM75.3875 43.311C74.2289 43.311 73.2937 42.3675 73.2937 41.2089C73.2937 40.0504 74.2372 39.1069 75.3875 39.1069C76.5378 39.1069 77.4978 40.0504 77.4978 41.2089C77.4978 42.3675 76.5543 43.311 75.3875 43.311ZM75.3875 36.4836C74.2289 36.4836 73.2937 35.5401 73.2937 34.3815C73.2937 33.223 74.2372 32.2795 75.3875 32.2795C76.5378 32.2795 77.4978 33.223 77.4978 34.3815C77.4978 35.5401 76.5543 36.4836 75.3875 36.4836ZM75.3875 29.6562C74.2289 29.6562 73.2937 28.7127 73.2937 27.5541C73.2937 26.3956 74.2372 25.4521 75.3875 25.4521C76.5378 25.4521 77.4978 26.3956 77.4978 27.5541C77.4978 28.7127 76.5543 29.6562 75.3875 29.6562ZM75.3875 22.8288C74.2289 22.8288 73.2937 21.8853 73.2937 20.7267C73.2937 19.5682 74.2372 18.6247 75.3875 18.6247C76.5378 18.6247 77.4978 19.5682 77.4978 20.7267C77.4978 21.8853 76.5543 22.8288 75.3875 22.8288ZM75.3875 16.0014C74.2289 16.0014 73.2937 15.0579 73.2937 13.8993C73.2937 12.7408 74.2372 11.7973 75.3875 11.7973C76.5378 11.7973 77.4978 12.7408 77.4978 13.8993C77.4978 15.0579 76.5543 16.0014 75.3875 16.0014ZM91.6077 52.3893L92.3691 55.6582L89.4974 53.9286L86.6258 55.6582L87.3871 52.3893L84.8548 50.1963L88.1982 49.9066L89.5057 46.8198L90.805 49.9066L94.1483 50.1963L91.616 52.3893H91.6077ZM91.6077 33.6864L92.3691 36.9553L89.4974 35.2257L86.6258 36.9553L87.3871 33.6864L84.8548 31.4933L88.1982 31.2037L89.5057 28.1169L90.805 31.2037L94.1483 31.4933L91.616 33.6864H91.6077ZM91.6077 14.9917L92.3691 18.2606L89.4974 16.531L86.6258 18.2606L87.3871 14.9917L84.8548 12.7987L88.1982 12.509L89.5057 9.42222L90.8133 12.509L94.1566 12.7987L91.6243 14.9917H91.6077Z" fill="white"/>
</g>
<defs>
<clipPath id="clip0_652_221">
<rect width="102.237" height="68.0919" fill="white" transform="translate(0.269531 0.376953)"/>
</clipPath>
</defs>
</svg>
