<svg width="29" height="29" viewBox="0 0 29 29" fill="none" xmlns="http://www.w3.org/2000/svg">
<path d="M8.38953 0.853516H20.1495C24.6295 0.853516 28.2695 4.49352 28.2695 8.97352V20.7335C28.2695 22.8871 27.414 24.9524 25.8912 26.4752C24.3684 27.998 22.3031 28.8535 20.1495 28.8535H8.38953C3.90953 28.8535 0.269531 25.2135 0.269531 20.7335V8.97352C0.269531 6.81996 1.12503 4.7546 2.64782 3.23181C4.17062 1.70901 6.23597 0.853516 8.38953 0.853516ZM8.10953 3.65352C6.77284 3.65352 5.4909 4.18451 4.54571 5.1297C3.60053 6.07488 3.06953 7.35682 3.06953 8.69352V21.0135C3.06953 23.7995 5.32353 26.0535 8.10953 26.0535H20.4295C21.7662 26.0535 23.0482 25.5225 23.9934 24.5773C24.9385 23.6322 25.4695 22.3502 25.4695 21.0135V8.69352C25.4695 5.90752 23.2155 3.65352 20.4295 3.65352H8.10953ZM21.6195 5.75352C22.0837 5.75352 22.5288 5.93789 22.857 6.26608C23.1852 6.59427 23.3695 7.03939 23.3695 7.50352C23.3695 7.96764 23.1852 8.41276 22.857 8.74095C22.5288 9.06914 22.0837 9.25352 21.6195 9.25352C21.1554 9.25352 20.7103 9.06914 20.3821 8.74095C20.0539 8.41276 19.8695 7.96764 19.8695 7.50352C19.8695 7.03939 20.0539 6.59427 20.3821 6.26608C20.7103 5.93789 21.1554 5.75352 21.6195 5.75352ZM14.2695 7.85352C16.126 7.85352 17.9065 8.59101 19.2193 9.90377C20.532 11.2165 21.2695 12.997 21.2695 14.8535C21.2695 16.71 20.532 18.4905 19.2193 19.8033C17.9065 21.116 16.126 21.8535 14.2695 21.8535C12.413 21.8535 10.6325 21.116 9.31978 19.8033C8.00703 18.4905 7.26953 16.71 7.26953 14.8535C7.26953 12.997 8.00703 11.2165 9.31978 9.90377C10.6325 8.59101 12.413 7.85352 14.2695 7.85352ZM14.2695 10.6535C13.1556 10.6535 12.0873 11.096 11.2997 11.8837C10.512 12.6713 10.0695 13.7396 10.0695 14.8535C10.0695 15.9674 10.512 17.0357 11.2997 17.8234C12.0873 18.611 13.1556 19.0535 14.2695 19.0535C15.3834 19.0535 16.4517 18.611 17.2394 17.8234C18.027 17.0357 18.4695 15.9674 18.4695 14.8535C18.4695 13.7396 18.027 12.6713 17.2394 11.8837C16.4517 11.096 15.3834 10.6535 14.2695 10.6535Z" fill="#AF9B78"/>
</svg>
